<?xml version="1.0" standalone="no"?><!DOCTYPE svg PUBLIC "-//W3C//DTD SVG 1.1//EN" "http://www.w3.org/Graphics/SVG/1.1/DTD/svg11.dtd"><svg t="1728614434543" class="icon" viewBox="0 0 1024 1024" version="1.1" xmlns="http://www.w3.org/2000/svg" p-id="1451" xmlns:xlink="http://www.w3.org/1999/xlink" width="200" height="200"><path d="M85.333333 576.021333c0-221.866667 168.533333-403.2 384-424.533333v-44.8h-64c-23.466667 0-42.666667-19.2-42.666666-42.666667s19.2-42.666667 42.666666-42.666666h213.333334c23.466667 0 42.666667 19.2 42.666666 42.666666s-19.2 42.666667-42.666666 42.666667h-64v44.8c85.333333 8.533333 164.266667 42.666667 226.133333 93.866667l40.533333-40.533334c17.066667-17.066667 42.666667-17.066667 59.733334 0 17.066667 17.066667 17.066667 42.666667 0 59.733334l-40.533334 40.533333c61.866667 74.666667 98.133333 168.533333 98.133334 270.933333 0 234.666667-192 426.666667-426.666667 426.666667s-426.666667-192-426.666667-426.666667z m426.666667-341.333333c-187.733333 0-341.333333 153.6-341.333333 341.333333s153.6 341.333333 341.333333 341.333334 341.333333-153.6 341.333333-341.333334-153.6-341.333333-341.333333-341.333333z" fill="#2F3CF4" p-id="1452"></path><path d="M482.133333 605.888c8.533333 8.533333 19.2 12.8 29.866667 12.8s21.333333-4.266667 29.866667-12.8c17.066667-17.066667 17.066667-42.666667 0-59.733333l-170.666667-170.666667c-17.066667-17.066667-42.666667-17.066667-59.733333 0-17.066667 17.066667-17.066667 42.666667 0 59.733333l170.666666 170.666667z" fill="#2F3CF4" p-id="1453"></path></svg>